Normalized EMG Linear Envelopes
nRows=203
nColumns=4

endheader
time	 med_gas_r	  soleus_r	 tib_ant_r	
4.45766	  0.008931	  0.034591	  0.005572	
4.49093	  0.009003	  0.035206	  0.005545	
4.52419	  0.008981	  0.032328	  0.005530	
4.55746	  0.008904	  0.027462	  0.005531	
4.59073	  0.008769	  0.022057	  0.005543	
4.62399	  0.008605	  0.017067	  0.005556	
4.65726	  0.008424	  0.012993	  0.005556	
4.69052	  0.008203	  0.010013	  0.005548	
4.72379	  0.007959	  0.008096	  0.005541	
4.75706	  0.007739	  0.007109	  0.005542	
4.79032	  0.007571	  0.006882	  0.005553	
4.82359	  0.007469	  0.007247	  0.005578	
4.85685	  0.007416	  0.008061	  0.005620	
4.89012	  0.007363	  0.009184	  0.005681	
4.92339	  0.007320	  0.010454	  0.005756	
4.95665	  0.007317	  0.011624	  0.005843	
4.98992	  0.007340	  0.012331	  0.005936	
5.02319	  0.007349	  0.012226	  0.006031	
5.05645	  0.007334	  0.011509	  0.006118	
5.08972	  0.007310	  0.010505	  0.006167	
5.12298	  0.007332	  0.009443	  0.006129	
5.15625	  0.007448	  0.008465	  0.005941	
5.18952	  0.007658	  0.007639	  0.005524	
5.22278	  0.007969	  0.006972	  0.004772	
5.25605	  0.008386	  0.006424	  0.003577	
5.28931	  0.008907	  0.005937	  0.001874	
5.32258	  0.009467	  0.005462	 -0.000336	
5.35585	  0.009958	  0.004979	 -0.002945	
5.38911	  0.010277	  0.004492	 -0.005684	
5.42238	  0.010334	  0.004056	 -0.008040	
5.45565	  0.010134	  0.003791	 -0.009166	
5.48891	  0.009833	  0.003896	 -0.007805	
5.52218	  0.009632	  0.004666	 -0.002291	
5.55544	  0.009660	  0.006456	  0.009416	
5.58871	  0.010050	  0.009674	  0.029558	
5.62198	  0.010957	  0.014697	  0.060218	
5.65524	  0.012507	  0.021770	  0.102694	
5.68851	  0.014737	  0.030862	  0.156608	
5.72177	  0.017544	  0.041471	  0.218824	
5.75504	  0.020651	  0.052548	  0.283483	
5.78831	  0.023793	  0.063053	  0.344508	
5.82157	  0.026848	  0.072765	  0.399183	
5.85484	  0.029688	  0.081716	  0.444477	
5.8881	  0.032178	  0.089757	  0.478275	
5.92137	  0.034393	  0.097043	  0.501234	
5.95464	  0.036497	  0.104165	  0.514272	
5.9879	  0.038501	  0.111396	  0.519517	
6.02117	  0.040487	  0.118737	  0.522075	
6.05444	  0.042649	  0.125718	  0.529014	
6.0877	  0.045005	  0.131291	  0.542260	
6.12097	  0.047135	  0.134577	  0.559289	
6.15423	  0.048302	  0.135127	  0.576505	
6.1875	  0.048559	  0.133379	  0.593426	
6.22077	  0.048158	  0.130563	  0.607313	
6.25403	  0.046987	  0.127019	  0.612090	
6.2873	  0.044974	  0.122455	  0.608383	
6.32056	  0.042637	  0.117502	  0.602457	
6.35383	  0.040484	  0.113235	  0.597125	
6.3871	  0.038578	  0.109569	  0.588508	
6.42036	  0.037041	  0.107012	  0.574998	
6.45363	  0.036038	  0.105994	  0.557454	
6.4869	  0.035689	  0.106202	  0.536961	
6.52016	  0.035882	  0.107116	  0.515683	
6.55343	  0.036348	  0.108534	  0.495583	
6.58669	  0.036809	  0.110237	  0.476677	
6.61996	  0.037178	  0.112182	  0.461197	
6.65323	  0.037544	  0.114560	  0.450006	
6.68649	  0.037937	  0.117426	  0.440822	
6.71976	  0.038322	  0.120082	  0.431460	
6.75302	  0.038503	  0.121419	  0.423793	
6.78629	  0.038395	  0.120949	  0.420893	
6.81956	  0.037984	  0.118931	  0.424913	
6.85282	  0.037295	  0.115755	  0.436460	
6.88609	  0.036501	  0.111631	  0.453520	
6.91935	  0.035749	  0.107359	  0.471802	
6.95262	  0.035172	  0.103825	  0.488248	
6.98589	  0.034869	  0.101619	  0.499295	
7.01915	  0.034824	  0.100992	  0.502653	
7.05242	  0.034855	  0.101623	  0.499267	
7.08569	  0.034782	  0.102934	  0.490807	
7.11895	  0.034552	  0.104170	  0.478270	
7.15222	  0.034164	  0.104893	  0.464821	
7.18548	  0.033684	  0.105148	  0.454390	
7.21875	  0.033203	  0.104419	  0.447395	
7.25202	  0.032781	  0.102573	  0.441169	
7.28528	  0.032419	  0.099929	  0.434712	
7.31855	  0.032085	  0.097166	  0.429103	
7.35181	  0.031859	  0.094660	  0.426436	
7.38508	  0.031804	  0.092505	  0.427205	
7.41835	  0.031874	  0.090879	  0.430896	
7.45161	  0.032006	  0.089826	  0.437022	
7.48488	  0.032193	  0.089165	  0.444486	
7.51815	  0.032413	  0.088485	  0.452160	
7.55141	  0.032724	  0.087724	  0.458505	
7.58468	  0.033149	  0.087075	  0.460859	
7.61794	  0.033598	  0.086464	  0.456677	
7.65121	  0.033960	  0.086032	  0.447552	
7.68448	  0.034090	  0.085945	  0.438946	
7.71774	  0.033919	  0.086197	  0.436236	
7.75101	  0.033446	  0.086832	  0.441559	
7.78427	  0.032770	  0.087941	  0.455490	
7.81754	  0.031977	  0.089464	  0.476063	
7.85081	  0.031300	  0.091534	  0.499846	
7.88407	  0.030819	  0.094081	  0.522873	
7.91734	  0.030551	  0.097004	  0.541199	
7.9506	  0.030488	  0.100005	  0.551207	
7.98387	  0.030581	  0.102751	  0.551799	
8.01714	  0.030860	  0.105306	  0.545309	
8.0504	  0.031275	  0.107263	  0.535095	
8.08367	  0.031754	  0.108232	  0.523917	
8.11694	  0.032165	  0.107964	  0.512627	
8.1502	  0.032426	  0.106666	  0.502399	
8.18347	  0.032471	  0.104281	  0.494385	
8.21673	  0.032274	  0.101065	  0.489659	
8.25	  0.031920	  0.097867	  0.488731	
8.28327	  0.031456	  0.095269	  0.492024	
8.31653	  0.030999	  0.093495	  0.499411	
8.3498	  0.030605	  0.092316	  0.509457	
8.38306	  0.030271	  0.091841	  0.520784	
8.41633	  0.030059	  0.091984	  0.531840	
8.4496	  0.030064	  0.092630	  0.540021	
8.48286	  0.030283	  0.093567	  0.542426	
8.51613	  0.030709	  0.094456	  0.540092	
8.5494	  0.031298	  0.095173	  0.534170	
8.58266	  0.031960	  0.095836	  0.524954	
8.61593	  0.032534	  0.096443	  0.513701	
8.64919	  0.032952	  0.097203	  0.502260	
8.68246	  0.033191	  0.098249	  0.494094	
8.71573	  0.033261	  0.099185	  0.490889	
8.74899	  0.033279	  0.099992	  0.491846	
8.78226	  0.033292	  0.101086	  0.494841	
8.81552	  0.033420	  0.102733	  0.497365	
8.84879	  0.033680	  0.104742	  0.498226	
8.88206	  0.034063	  0.107071	  0.497226	
8.91532	  0.034548	  0.109676	  0.496944	
8.94859	  0.035131	  0.112495	  0.499717	
8.98185	  0.035743	  0.115229	  0.506546	
9.01512	  0.036280	  0.117857	  0.518252	
9.04839	  0.036758	  0.120534	  0.534239	
9.08165	  0.037196	  0.123279	  0.555873	
9.11492	  0.037743	  0.126059	  0.585612	
9.14819	  0.038596	  0.129042	  0.623333	
9.18145	  0.039945	  0.132837	  0.668255	
9.21472	  0.041741	  0.137189	  0.717205	
9.24798	  0.043673	  0.141549	  0.765225	
9.28125	  0.045552	  0.146219	  0.806975	
9.31452	  0.047168	  0.151132	  0.835354	
9.34778	  0.048317	  0.155457	  0.849555	
9.38105	  0.049027	  0.158727	  0.854667	
9.41431	  0.049551	  0.160987	  0.856445	
9.44758	  0.050147	  0.163309	  0.857722	
9.48085	  0.050768	  0.166750	  0.858938	
9.51411	  0.051460	  0.171709	  0.861008	
9.54738	  0.052429	  0.178201	  0.864133	
9.58065	  0.053699	  0.185341	  0.870972	
9.61391	  0.055026	  0.191959	  0.884117	
9.64718	  0.056167	  0.197635	  0.904031	
9.68044	  0.057281	  0.203181	  0.928507	
9.71371	  0.058803	  0.209471	  0.952886	
9.74698	  0.061045	  0.218241	  0.974659	
9.78024	  0.063836	  0.229346	  0.990374	
9.81351	  0.066902	  0.240508	  0.998311	
9.84677	  0.070430	  0.249670	  0.999956	
9.88004	  0.074453	  0.256859	  0.998098	
9.91331	  0.078337	  0.261929	  0.991466	
9.94657	  0.081391	  0.264058	  0.974924	
9.97984	  0.082715	  0.261303	  0.943634	
10.0131	  0.081816	  0.252413	  0.902303	
10.0464	  0.078699	  0.238156	  0.855609	
10.0796	  0.073498	  0.219552	  0.804518	
10.1129	  0.066915	  0.198297	  0.750570	
10.1462	  0.059827	  0.176190	  0.691270	
10.1794	  0.052890	  0.155678	  0.625798	
10.2127	  0.046760	  0.139635	  0.557130	
10.246	  0.041930	  0.130380	  0.490840	
10.2792	  0.038667	  0.129450	  0.431241	
10.3125	  0.036911	  0.137173	  0.378154	
10.3458	  0.036245	  0.151808	  0.329185	
10.379	  0.036121	  0.169308	  0.282839	
10.4123	  0.036184	  0.187148	  0.237838	
10.4456	  0.036512	  0.206965	  0.195057	
10.4788	  0.037406	  0.229453	  0.156416	
10.5121	  0.038995	  0.252993	  0.123286	
10.5454	  0.041334	  0.275312	  0.096422	
10.5786	  0.044208	  0.293212	  0.075961	
10.6119	  0.046738	  0.302395	  0.061185	
10.6452	  0.047507	  0.299445	  0.050883	
10.6784	  0.045243	  0.281758	  0.043416	
10.7117	  0.040234	  0.250264	  0.037309	
10.745	  0.033935	  0.209548	  0.032044	
10.7782	  0.027512	  0.166612	  0.027582	
10.8115	  0.021640	  0.126439	  0.023900	
10.8448	  0.016769	  0.092757	  0.020897	
10.878	  0.013136	  0.066906	  0.018463	
10.9113	  0.010723	  0.047935	  0.016471	
10.9446	  0.009343	  0.033834	  0.014864	
10.9778	  0.008755	  0.023776	  0.013598	
11.0111	  0.008720	  0.017443	  0.012679	
11.0444	  0.008983	  0.014243	  0.012099	
11.0776	  0.009244	  0.013315	  0.011785	
11.1109	  0.009308	  0.013779	  0.011696	
11.1442	  0.009201	  0.015140	  0.011781	
11.1774	  0.008997	  0.017028	  0.011870	
